<svg width="18" height="18" viewBox="0 0 18 18" fill="none" xmlns="http://www.w3.org/2000/svg">
<path d="M9.06 17.04C13.74 17.04 17.58 13.24 17.58 8.52C17.58 3.84 13.74 -1.90735e-06 9.06 -1.90735e-06C4.38 -1.90735e-06 0.54 3.76 0.54 8.52C0.54 13.28 4.38 17.04 9.06 17.04Z" fill="#F5F5F5"/>
<path d="M9.06 18.04C14.2892 18.04 18.58 13.7953 18.58 8.52H16.58C16.58 12.6847 13.1908 16.04 9.06 16.04V18.04ZM18.58 8.52C18.58 3.28771 14.2923 -1 9.06 -1V0.999998C13.1877 0.999998 16.58 4.39228 16.58 8.52H18.58ZM9.06 -1C3.83385 -1 -0.46 3.2016 -0.46 8.52H1.54C1.54 4.3184 4.92615 0.999998 9.06 0.999998V-1ZM-0.46 8.52C-0.46 13.8384 3.83385 18.04 9.06 18.04V16.04C4.92615 16.04 1.54 12.7216 1.54 8.52H-0.46Z" fill="#E6E6E6"/>
</svg>
